<svg width="24" height="24" viewBox="0 0 24 24" fill="none" xmlns="http://www.w3.org/2000/svg">
<path d="M17.6694 8.88357C18.0669 8.50014 18.0669 7.87848 17.6694 7.49505C17.2719 7.11161 16.6275 7.11161 16.23 7.49505L17.6694 8.88357ZM6.33052 17.0444C5.93302 17.4278 5.93303 18.0495 6.33052 18.4329C6.72801 18.8163 7.37246 18.8163 7.76996 18.4329L6.33052 17.0444ZM16.23 7.49505L6.33052 17.0444L7.76996 18.4329L17.6694 8.88357L16.23 7.49505Z" fill="#9098B1"/>
<path d="M7.77001 7.49505C7.37252 7.11161 6.72806 7.11161 6.33057 7.49505C5.93308 7.87848 5.93308 8.50014 6.33057 8.88357L7.77001 7.49505ZM16.23 18.4329C16.6275 18.8163 17.272 18.8163 17.6695 18.4329C18.067 18.0495 18.067 17.4278 17.6695 17.0444L16.23 18.4329ZM6.33057 8.88357L16.23 18.4329L17.6695 17.0444L7.77001 7.49505L6.33057 8.88357Z" fill="#9098B1"/>
</svg>
