<svg width="29" height="21" viewBox="0 0 29 21" fill="none" xmlns="http://www.w3.org/2000/svg">
<path d="M5.09788 8.3555C3.91351 7.19687 2.01413 7.21774 0.855501 8.40212C-0.303129 9.58649 -0.282259 11.4859 0.902121 12.6445L5.09788 8.3555ZM10.6667 18L8.56878 20.1445C9.7348 21.2852 11.5985 21.2852 12.7646 20.1445L10.6667 18ZM28.0979 5.1445C29.2823 3.98588 29.3031 2.08649 28.1445 0.902121C26.9859 -0.282259 25.0865 -0.303129 23.9021 0.855501L28.0979 5.1445ZM0.902121 12.6445L8.56878 20.1445L12.7646 15.8555L5.09788 8.3555L0.902121 12.6445ZM12.7646 20.1445L28.0979 5.1445L23.9021 0.855501L8.56878 15.8555L12.7646 20.1445Z" fill="white"/>
</svg>
