<svg width="24" height="24" viewBox="0 0 24 24" fill="none" xmlns="http://www.w3.org/2000/svg">
<path d="M3.89998 7.9498V7.0498C3.40293 7.0498 3 7.45275 3 7.9498H3.89998ZM20.0996 7.9498H20.9996C20.9996 7.45275 20.5967 7.0498 20.0996 7.0498V7.9498ZM20.0996 20.0998V20.9998C20.5967 20.9998 20.9996 20.5969 20.9996 20.0998H20.0996ZM3.89998 20.0998H3C3 20.5969 3.40293 20.9998 3.89998 20.9998V20.0998ZM3.89998 8.8498H20.0996V7.0498H3.89998V8.8498ZM19.1996 7.9498V20.0998H20.9996V7.9498H19.1996ZM20.0996 19.1998H3.89998V20.9998H20.0996V19.1998ZM4.79996 20.0998V7.9498H3V20.0998H4.79996Z" fill="#40BFFF"/>
<path d="M4.13125 12.0162C3.65086 11.8886 3.15799 12.1746 3.03039 12.655C2.90278 13.1354 3.18877 13.6283 3.66916 13.7559L4.13125 12.0162ZM12 15.0376L11.769 15.9075C11.9161 15.9465 12.0706 15.9477 12.2183 15.9108L12 15.0376ZM20.3181 13.8858C20.8003 13.7652 21.0935 13.2766 20.9729 12.7943C20.8524 12.3121 20.3638 12.0189 19.8816 12.1395L20.3181 13.8858ZM3.66916 13.7559L11.769 15.9075L12.2311 14.1678L4.13125 12.0162L3.66916 13.7559ZM12.2183 15.9108L20.3181 13.8858L19.8816 12.1395L11.7817 14.1645L12.2183 15.9108Z" fill="#40BFFF"/>
<path d="M7.76562 7.02154C7.76562 7.51859 8.16856 7.92154 8.6656 7.92154C9.16265 7.92154 9.56558 7.51859 9.56558 7.02154H7.76562ZM8.6656 3.9V3C8.16856 3 7.76562 3.40294 7.76562 3.9H8.6656ZM16.0486 3.9H16.9486C16.9486 3.40294 16.5456 3 16.0486 3V3.9ZM15.1486 6.9375C15.1486 7.43455 15.5515 7.8375 16.0486 7.8375C16.5456 7.8375 16.9486 7.43455 16.9486 6.9375H15.1486ZM9.56558 7.02154V3.9H7.76562V7.02154H9.56558ZM8.6656 4.8H16.0486V3H8.6656V4.8ZM15.1486 3.9V6.9375H16.9486V3.9H15.1486Z" fill="#40BFFF"/>
<path d="M11.9967 10.7627C11.4996 10.7627 11.0967 11.1656 11.0967 11.6627C11.0967 12.1598 11.4996 12.5627 11.9967 12.5627V10.7627ZM12.0068 12.5627C12.5038 12.5627 12.9068 12.1598 12.9068 11.6627C12.9068 11.1656 12.5038 10.7627 12.0068 10.7627V12.5627ZM11.9967 12.5627H12.0068V10.7627H11.9967V12.5627Z" fill="#40BFFF"/>
</svg>
