<svg width="16" height="16" viewBox="0 0 16 16" fill="none" xmlns="http://www.w3.org/2000/svg">
<path d="M3.93069 12.2754C3.26122 13.1274 3.26122 14.5089 3.93069 15.3609C4.60016 16.213 5.68559 16.213 6.35506 15.3609L3.93069 12.2754ZM15.4979 3.72459C16.1674 2.87254 16.1674 1.49109 15.4979 0.639038C14.8284 -0.213013 13.743 -0.213013 13.0736 0.639038L15.4979 3.72459ZM6.35506 15.3609L15.4979 3.72459L13.0736 0.639038L3.93069 12.2754L6.35506 15.3609Z" fill="white"/>
<path d="M2.92644 0.639038C2.25695 -0.213013 1.17158 -0.213013 0.502097 0.639038C-0.167388 1.49109 -0.167388 2.87254 0.502097 3.72459L2.92644 0.639038ZM9.64494 15.3609C10.3144 16.213 11.3998 16.213 12.0693 15.3609C12.7388 14.5089 12.7388 13.1275 12.0693 12.2754L9.64494 15.3609ZM0.502097 3.72459L9.64494 15.3609L12.0693 12.2754L2.92644 0.639038L0.502097 3.72459Z" fill="white"/>
</svg>
