<svg width="24" height="24" viewBox="0 0 24 24" fill="none" xmlns="http://www.w3.org/2000/svg">
<path d="M3.9 3.9V3C3.40294 3 3 3.40294 3 3.9H3.9ZM20.1 3.9H21C21 3.40294 20.5971 3 20.1 3V3.9ZM20.1 20.1V21C20.5971 21 21 20.5971 21 20.1H20.1ZM3.9 20.1H3C3 20.5971 3.40294 21 3.9 21V20.1ZM3.9 4.8H20.1V3H3.9V4.8ZM19.2 3.9V20.1H21V3.9H19.2ZM20.1 19.2H3.9V21H20.1V19.2ZM4.8 20.1V3.9H3V20.1H4.8Z" fill="#40BFFF"/>
<path d="M8.9625 7.0498C8.46544 7.0498 8.0625 7.45275 8.0625 7.9498C8.0625 8.44686 8.46544 8.8498 8.9625 8.8498V7.0498ZM15.0375 8.8498C15.5346 8.8498 15.9375 8.44686 15.9375 7.9498C15.9375 7.45275 15.5346 7.0498 15.0375 7.0498V8.8498ZM8.9625 8.8498H15.0375V7.0498H8.9625V8.8498Z" fill="#40BFFF"/>
<path d="M8.9625 11.1001C8.46544 11.1001 8.0625 11.503 8.0625 12.0001C8.0625 12.4972 8.46544 12.9001 8.9625 12.9001V11.1001ZM15.0375 12.9001C15.5346 12.9001 15.9375 12.4972 15.9375 12.0001C15.9375 11.503 15.5346 11.1001 15.0375 11.1001V12.9001ZM8.9625 12.9001H15.0375V11.1001H8.9625V12.9001Z" fill="#40BFFF"/>
<path d="M8.9625 15.1499C8.46544 15.1499 8.0625 15.5528 8.0625 16.0499C8.0625 16.547 8.46544 16.9499 8.9625 16.9499V15.1499ZM15.0375 16.9499C15.5346 16.9499 15.9375 16.547 15.9375 16.0499C15.9375 15.5528 15.5346 15.1499 15.0375 15.1499V16.9499ZM8.9625 16.9499H15.0375V15.1499H8.9625V16.9499Z" fill="#40BFFF"/>
</svg>
