<svg width="24" height="24" viewBox="0 0 24 24" fill="none" xmlns="http://www.w3.org/2000/svg">
<path d="M11.9987 11.3663C11.1128 11.3663 10.3946 10.6241 10.3946 9.70871H8.65265C8.65265 11.6182 10.1508 13.1663 11.9987 13.1663V11.3663ZM10.3946 9.70871V6.45757H8.65265V9.70871H10.3946ZM10.3946 6.45757C10.3946 5.54219 11.1128 4.8 11.9987 4.8V3C10.1508 3 8.65265 4.54808 8.65265 6.45757H10.3946ZM11.9987 4.8C12.8845 4.8 13.6028 5.54219 13.6028 6.45757H15.3447C15.3447 4.54808 13.8466 3 11.9987 3V4.8ZM13.6028 6.45757V9.70871H15.3447V6.45757H13.6028ZM13.6028 9.70871C13.6028 10.6241 12.8845 11.3663 11.9987 11.3663V13.1663C13.8466 13.1663 15.3447 11.6182 15.3447 9.70871H13.6028Z" fill="#9098B1"/>
<path d="M12.871 17.0626C12.871 16.5655 12.481 16.1626 12 16.1626C11.519 16.1626 11.129 16.5655 11.129 17.0626H12.871ZM11.129 20.1001C11.129 20.5971 11.519 21.0001 12 21.0001C12.481 21.0001 12.871 20.5971 12.871 20.1001H11.129ZM11.129 17.0626V20.1001H12.871V17.0626H11.129Z" fill="#9098B1"/>
<path d="M6.99194 9.9752C6.99194 9.47814 6.60199 9.0752 6.12097 9.0752C5.63995 9.0752 5.25 9.47814 5.25 9.9752H6.99194ZM18.75 9.9752C18.75 9.47814 18.3601 9.0752 17.879 9.0752C17.398 9.0752 17.0081 9.47814 17.0081 9.9752H18.75ZM5.25 9.9752C5.25 13.8277 8.2718 16.9502 12 16.9502V15.1502C9.23383 15.1502 6.99194 12.8336 6.99194 9.9752H5.25ZM12 16.9502C15.7282 16.9502 18.75 13.8277 18.75 9.9752H17.0081C17.0081 12.8336 14.7662 15.1502 12 15.1502V16.9502Z" fill="#9098B1"/>
</svg>
