<svg width="24" height="24" viewBox="0 0 24 24" fill="none" xmlns="http://www.w3.org/2000/svg">
<path d="M5.875 15.6667V14.75C5.39175 14.75 5 15.1604 5 15.6667H5.875ZM18.125 15.6667H19C19 15.1604 18.6083 14.75 18.125 14.75V15.6667ZM18.125 18.2333V19.15C18.6083 19.15 19 18.7396 19 18.2333H18.125ZM13.225 22.0833V23C13.7082 23 14.1 22.5896 14.1 22.0833H13.225ZM10.775 22.0833H9.9C9.9 22.5896 10.2918 23 10.775 23V22.0833ZM5.875 18.2333H5C5 18.7396 5.39175 19.15 5.875 19.15V18.2333ZM5.875 16.5833H18.125V14.75H5.875V16.5833ZM17.25 15.6667V18.2333H19V15.6667H17.25ZM18.125 17.3167C16.7702 17.3167 15.3653 17.6687 14.2709 18.4331C13.1505 19.2156 12.35 20.4444 12.35 22.0833H14.1C14.1 21.1556 14.5245 20.4594 15.2416 19.9585C15.9847 19.4396 17.0298 19.15 18.125 19.15V17.3167ZM13.225 21.1667H10.775V23H13.225V21.1667ZM11.65 22.0833C11.65 20.4444 10.8495 19.2156 9.72911 18.4331C8.63463 17.6687 7.2298 17.3167 5.875 17.3167V19.15C6.9702 19.15 8.01537 19.4396 8.75839 19.9585C9.47547 20.4594 9.9 21.1556 9.9 22.0833H11.65ZM6.75 18.2333V15.6667H5V18.2333H6.75Z" fill="#40BFFF"/>
<path d="M6.75 1.91667C6.75 1.41041 6.35825 1 5.875 1C5.39175 1 5 1.41041 5 1.91667H6.75ZM19 1.91667C19 1.41041 18.6083 1 18.125 1C17.6417 1 17.25 1.41041 17.25 1.91667H19ZM5 1.91667V6.80381H6.75V1.91667H5ZM5 6.80381C5 9.65621 7.16735 12 9.8783 12V10.1667C8.167 10.1667 6.75 8.67879 6.75 6.80381H5ZM9.8783 12H14.1205V10.1667H9.8783V12ZM14.1205 12C16.8324 12 19 9.65639 19 6.80381H17.25C17.25 8.67861 15.8332 10.1667 14.1205 10.1667V12ZM19 6.80381V1.91667H17.25V6.80381H19Z" fill="#40BFFF"/>
<path d="M5.875 4.6665C5.39175 4.6665 5 5.07691 5 5.58317C5 6.08943 5.39175 6.49984 5.875 6.49984V4.6665ZM12 11.0832L11.1479 11.2915C11.2489 11.745 11.6585 12.0471 12.1001 11.9938C12.5417 11.9406 12.875 11.5489 12.875 11.0832H12ZM18.125 6.49984C18.6083 6.49984 19 6.08943 19 5.58317C19 5.07691 18.6083 4.6665 18.125 4.6665V6.49984ZM5.875 6.49984C7.95441 6.49984 9.24742 7.64547 10.0582 8.85884C10.467 9.47069 10.743 10.0885 10.9165 10.556C11.0028 10.7884 11.0624 10.9801 11.0997 11.1102C11.1183 11.1752 11.1313 11.2246 11.1391 11.2558C11.1431 11.2713 11.1457 11.2823 11.1471 11.2884C11.1479 11.2914 11.1483 11.2932 11.1484 11.2937C11.1485 11.294 11.1484 11.2939 11.1484 11.2936C11.1483 11.2934 11.1483 11.2931 11.1482 11.2928C11.1481 11.2926 11.1481 11.2923 11.148 11.2922C11.148 11.2918 11.1479 11.2915 12 11.0832C12.8521 10.8749 12.852 10.8745 12.8519 10.874C12.8519 10.8739 12.8518 10.8734 12.8517 10.8731C12.8516 10.8724 12.8514 10.8716 12.8512 10.8708C12.8508 10.8691 12.8503 10.867 12.8498 10.8646C12.8487 10.8599 12.8473 10.8538 12.8455 10.8464C12.842 10.8317 12.8372 10.8118 12.831 10.7871C12.8185 10.7376 12.8003 10.6688 12.7759 10.5834C12.727 10.4128 12.6527 10.1748 12.5475 9.89155C12.3383 9.32784 12.0017 8.57065 11.4918 7.8075C10.4651 6.27087 8.69559 4.6665 5.875 4.6665V6.49984ZM12 11.0832C12.875 11.0832 12.875 11.0837 12.875 11.0842C12.875 11.0843 12.875 11.0847 12.875 11.085C12.875 11.0856 12.875 11.086 12.875 11.0864C12.875 11.0871 12.875 11.0876 12.875 11.0877C12.875 11.0879 12.875 11.0869 12.875 11.0846C12.8751 11.0802 12.8753 11.0709 12.8758 11.057C12.8769 11.0293 12.8791 10.9838 12.8839 10.923C12.8936 10.801 12.9136 10.6195 12.9546 10.3988C13.0372 9.95375 13.2011 9.37034 13.5214 8.79505C14.1288 7.70436 15.3708 6.49984 18.125 6.49984V4.6665C14.7542 4.6665 12.9337 6.21198 12.0098 7.87129C11.5645 8.671 11.3456 9.4626 11.2368 10.0488C11.1821 10.3437 11.1542 10.5919 11.14 10.7707C11.1329 10.8603 11.1291 10.9329 11.1272 10.9858C11.1262 11.0122 11.1256 11.0338 11.1253 11.0501C11.1252 11.0583 11.1251 11.0652 11.1251 11.0707C11.125 11.0735 11.125 11.0759 11.125 11.078C11.125 11.079 11.125 11.08 11.125 11.0808C11.125 11.0813 11.125 11.0818 11.125 11.0821C11.125 11.0826 11.125 11.0832 12 11.0832Z" fill="#40BFFF"/>
</svg>
