<svg width="24" height="24" viewBox="0 0 24 24" fill="none" xmlns="http://www.w3.org/2000/svg">
<path d="M3.9 6.0376C3.40294 6.0376 3 6.44054 3 6.9376C3 7.43465 3.40294 7.8376 3.9 7.8376V6.0376ZM20.1 7.8376C20.5971 7.8376 21 7.43465 21 6.9376C21 6.44054 20.5971 6.0376 20.1 6.0376V7.8376ZM3.9 7.8376H20.1V6.0376H3.9V7.8376Z" fill="#9098B1"/>
<path d="M8.9625 3C8.46544 3 8.0625 3.40294 8.0625 3.9C8.0625 4.39706 8.46544 4.8 8.9625 4.8V3ZM15.0375 4.8C15.5346 4.8 15.9375 4.39706 15.9375 3.9C15.9375 3.40294 15.5346 3 15.0375 3V4.8ZM8.9625 4.8H15.0375V3H8.9625V4.8Z" fill="#9098B1"/>
<path d="M5.9249 6.9376V6.0376C5.42785 6.0376 5.0249 6.44054 5.0249 6.9376H5.9249ZM18.0749 6.9376H18.9749C18.9749 6.44054 18.572 6.0376 18.0749 6.0376V6.9376ZM18.0749 20.1001V21.0001C18.572 21.0001 18.9749 20.5972 18.9749 20.1001H18.0749ZM5.9249 20.1001H5.0249C5.0249 20.5972 5.42785 21.0001 5.9249 21.0001V20.1001ZM5.9249 7.8376H18.0749V6.0376H5.9249V7.8376ZM17.1749 6.9376V20.1001H18.9749V6.9376H17.1749ZM18.0749 19.2001H5.9249V21.0001H18.0749V19.2001ZM6.8249 20.1001V6.9376H5.0249V20.1001H6.8249Z" fill="#9098B1"/>
</svg>
