<svg width="24" height="24" viewBox="0 0 24 24" fill="none" xmlns="http://www.w3.org/2000/svg">
<path d="M5.54444 13.7754L6.24347 13.0603L6.24346 13.0603L5.54444 13.7754ZM12.9996 21.063L12.3006 21.7781C12.6892 22.158 13.3101 22.158 13.6987 21.7781L12.9996 21.063ZM20.4548 13.7754L21.1538 14.4905L20.4548 13.7754ZM13.0399 6.44831L13.7389 7.16341L13.7391 7.16324L13.0399 6.44831ZM12.9996 6.48766L12.3006 7.20275C12.6892 7.58263 13.31 7.58263 13.6986 7.20276L12.9996 6.48766ZM12.9584 6.44737L13.6574 5.73229V5.73228L12.9584 6.44737ZM5.50323 13.7351L6.20225 13.02L6.20209 13.0198L5.50323 13.7351ZM4.84541 14.4905L12.3006 21.7781L13.6987 20.3479L6.24347 13.0603L4.84541 14.4905ZM13.6987 21.7781L21.1538 14.4905L19.7558 13.0603L12.3006 20.3479L13.6987 21.7781ZM21.1538 14.4905L21.1941 14.4511L19.796 13.0209L19.7558 13.0603L21.1538 14.4905ZM21.1941 14.4511C23.6561 12.0444 23.6563 8.13899 21.1939 5.73306L19.7962 7.16357C21.4554 8.7847 21.4556 11.3986 19.796 13.0209L21.1941 14.4511ZM21.1939 5.73306C18.7449 3.34015 14.7894 3.33853 12.3407 5.73338L13.7391 7.16324C15.4099 5.52916 18.1237 5.52941 19.7962 7.16357L21.1939 5.73306ZM12.3409 5.73321L12.3006 5.77257L13.6986 7.20276L13.7389 7.16341L12.3409 5.73321ZM13.6987 5.77258L13.6574 5.73229L12.2594 7.16246L12.3006 7.20275L13.6987 5.77258ZM13.6574 5.73228C11.2082 3.33802 7.25258 3.33779 4.80403 5.73245L6.20242 7.1623C7.8735 5.52802 10.5871 5.52779 12.2594 7.16247L13.6574 5.73228ZM4.80403 5.73245C2.34346 8.13885 2.34177 12.0442 4.80436 14.4503L6.20209 13.0198C4.54314 11.3989 4.54337 8.78483 6.20242 7.1623L4.80403 5.73245ZM4.8042 14.4502L4.84542 14.4905L6.24346 13.0603L6.20225 13.02L4.8042 14.4502Z" fill="#9098B1"/>
</svg>
