<svg width="20" height="20" viewBox="0 0 20 20" fill="none" xmlns="http://www.w3.org/2000/svg">
<g opacity="0.5">
<path fill-rule="evenodd" clip-rule="evenodd" d="M14.7144 5.28603C15.0399 5.61147 15.0399 6.13911 14.7144 6.46455L6.46486 14.7141C6.13945 15.0395 5.61181 15.0395 5.28637 14.7141C4.96094 14.3887 4.96094 13.861 5.28635 13.5356L13.5359 5.28603C13.8614 4.9606 14.389 4.9606 14.7144 5.28603Z" fill="#223263"/>
<path fill-rule="evenodd" clip-rule="evenodd" d="M5.28556 5.28603C5.611 4.9606 6.13864 4.9606 6.46407 5.28603L14.7137 13.5356C15.0391 13.861 15.0391 14.3887 14.7136 14.7141C14.3882 15.0395 13.8605 15.0395 13.5351 14.7141L5.28556 6.46455C4.96012 6.13911 4.96012 5.61147 5.28556 5.28603Z" fill="#223263"/>
</g>
</svg>
