<svg width="24" height="24" viewBox="0 0 24 24" fill="none" xmlns="http://www.w3.org/2000/svg">
<path d="M17.175 10.9875C17.175 14.4048 14.4048 17.175 10.9875 17.175V18.975C15.3989 18.975 18.975 15.3989 18.975 10.9875H17.175ZM10.9875 17.175C7.57024 17.175 4.8 14.4048 4.8 10.9875H3C3 15.3989 6.57612 18.975 10.9875 18.975V17.175ZM4.8 10.9875C4.8 7.57024 7.57024 4.8 10.9875 4.8V3C6.57612 3 3 6.57612 3 10.9875H4.8ZM10.9875 4.8C14.4048 4.8 17.175 7.57024 17.175 10.9875H18.975C18.975 6.57612 15.3989 3 10.9875 3V4.8Z" fill="#9098B1"/>
<path d="M16.6863 15.4135C16.3348 15.062 15.765 15.062 15.4135 15.4135C15.062 15.765 15.062 16.3348 15.4135 16.6863L16.6863 15.4135ZM19.4635 20.7363C19.815 21.0878 20.3848 21.0878 20.7363 20.7363C21.0878 20.3848 21.0878 19.815 20.7363 19.4635L19.4635 20.7363ZM15.4135 16.6863L19.4635 20.7363L20.7363 19.4635L16.6863 15.4135L15.4135 16.6863Z" fill="#9098B1"/>
</svg>
