<svg width="34" height="20" viewBox="0 0 34 20" fill="none" xmlns="http://www.w3.org/2000/svg">
<path d="M0.485431 0.47619V0H0V0.47619H0.485431ZM0.485431 19.5238H0V20H0.485431V19.5238ZM0.485431 0.952381H27.9813V0H0.485431V0.952381ZM32.3502 5.2381V14.7619H33.321V5.2381H32.3502ZM27.9813 19.0476H0.485431V20H27.9813V19.0476ZM0.970862 19.5238V0.47619H0V19.5238H0.970862ZM32.3502 14.7619C32.3502 17.1289 30.3942 19.0476 27.9813 19.0476V20C30.9304 20 33.321 17.6549 33.321 14.7619H32.3502ZM27.9813 0.952381C30.3942 0.952381 32.3502 2.87116 32.3502 5.2381H33.321C33.321 2.34517 30.9304 0 27.9813 0V0.952381Z" fill="#EBF0FF"/>
<path d="M16.9804 6.57789C16.9804 6.15949 16.62 5.82031 16.1753 5.82031C15.7306 5.82031 15.3701 6.15949 15.3701 6.57789H16.9804ZM15.3701 12.4701C15.3701 12.8885 15.7306 13.2277 16.1753 13.2277C16.62 13.2277 16.9804 12.8885 16.9804 12.4701H15.3701ZM15.3701 6.57789V12.4701H16.9804V6.57789H15.3701Z" fill="#9098B1"/>
<path d="M12.2627 8.7666C11.818 8.7666 11.4575 9.10578 11.4575 9.52418C11.4575 9.94257 11.818 10.2818 12.2627 10.2818V8.7666ZM20.0878 10.2818C20.5324 10.2818 20.893 9.94257 20.893 9.52418C20.893 9.10578 20.5324 8.7666 20.0878 8.7666V10.2818ZM12.2627 10.2818H20.0878V8.7666H12.2627V10.2818Z" fill="#9098B1"/>
</svg>
