<svg width="24" height="24" viewBox="0 0 24 24" fill="none" xmlns="http://www.w3.org/2000/svg">
<path d="M3.5258 4.94315C3.10694 5.05273 2.89472 5.37845 3.05179 5.67067C3.20886 5.96289 3.67575 6.11095 4.0946 6.00137L3.5258 4.94315ZM11.1 3.56509L11.3844 3.03598C11.2011 2.98801 10.999 2.98801 10.8156 3.03598L11.1 3.56509ZM18.1054 6.00137C18.5243 6.11095 18.9912 5.96289 19.1482 5.67067C19.3053 5.37845 19.0931 5.05273 18.6742 4.94315L18.1054 6.00137ZM4.0946 6.00137L11.3844 4.09419L10.8156 3.03598L3.5258 4.94315L4.0946 6.00137ZM10.8156 4.09419L18.1054 6.00137L18.6742 4.94315L11.3844 3.03598L10.8156 4.09419Z" fill="#40BFFF"/>
<path d="M3.9 19.2002C3.40294 19.2002 3 19.6031 3 20.1002C3 20.5973 3.40294 21.0002 3.9 21.0002V19.2002ZM20.1 21.0002C20.5971 21.0002 21 20.5973 21 20.1002C21 19.6031 20.5971 19.2002 20.1 19.2002V21.0002ZM3.9 21.0002H20.1V19.2002H3.9V21.0002Z" fill="#40BFFF"/>
<path d="M11.0996 16.0502C11.0996 16.5472 11.5026 16.9502 11.9996 16.9502C12.4967 16.9502 12.8996 16.5472 12.8996 16.0502H11.0996ZM12.8996 9.9752C12.8996 9.47814 12.4967 9.0752 11.9996 9.0752C11.5026 9.0752 11.0996 9.47814 11.0996 9.9752H12.8996ZM12.8996 16.0502V9.9752H11.0996V16.0502H12.8996Z" fill="#40BFFF"/>
<path d="M17.1748 16.0502C17.1748 16.5472 17.5777 16.9502 18.0748 16.9502C18.5719 16.9502 18.9748 16.5472 18.9748 16.0502H17.1748ZM18.9748 9.9752C18.9748 9.47814 18.5719 9.0752 18.0748 9.0752C17.5777 9.0752 17.1748 9.47814 17.1748 9.9752H18.9748ZM18.9748 16.0502V9.9752H17.1748V16.0502H18.9748Z" fill="#40BFFF"/>
<path d="M5.02539 16.0502C5.02539 16.5472 5.42833 16.9502 5.92539 16.9502C6.42245 16.9502 6.82539 16.5472 6.82539 16.0502H5.02539ZM6.82539 9.9752C6.82539 9.47814 6.42245 9.0752 5.92539 9.0752C5.42833 9.0752 5.02539 9.47814 5.02539 9.9752H6.82539ZM6.82539 16.0502V9.9752H5.02539V16.0502H6.82539Z" fill="#40BFFF"/>
</svg>
