<svg width="24" height="24" viewBox="0 0 24 24" fill="none" xmlns="http://www.w3.org/2000/svg">
<path d="M14.025 6.9376L14.8788 6.65299C14.7563 6.28548 14.4123 6.0376 14.025 6.0376V6.9376ZM15.0375 9.9751L15.8913 10.2597C15.9529 10.075 15.9529 9.87523 15.8913 9.69049L15.0375 9.9751ZM14.025 13.0126L13.1712 12.728C13.0633 13.0514 13.1476 13.4079 13.3886 13.649L14.025 13.0126ZM20.1 19.0876L20.5025 19.8926C20.7612 19.7632 20.942 19.5173 20.9884 19.2318C21.0347 18.9462 20.9409 18.6558 20.7364 18.4512L20.1 19.0876ZM3.90001 19.0876L3.26361 18.4512C3.05905 18.6558 2.96529 18.9462 3.01163 19.2318C3.05797 19.5173 3.23876 19.7632 3.49752 19.8926L3.90001 19.0876ZM9.975 13.0126L10.6114 13.649C10.8524 13.4079 10.9366 13.0514 10.8288 12.728L9.975 13.0126ZM8.9625 9.9751L8.10869 9.69049C8.0471 9.87523 8.0471 10.075 8.10869 10.2597L8.9625 9.9751ZM9.975 6.9376V6.0376C9.58761 6.0376 9.24369 6.28548 9.12119 6.65299L9.975 6.9376ZM13.1712 7.2222L14.1837 10.2597L15.8913 9.69049L14.8788 6.65299L13.1712 7.2222ZM14.1837 9.69049L13.1712 12.728L14.8788 13.2972L15.8913 10.2597L14.1837 9.69049ZM13.3886 13.649L19.4636 19.724L20.7364 18.4512L14.6614 12.3762L13.3886 13.649ZM20.1 19.0876C19.6975 18.2826 19.6979 18.2824 19.6984 18.2822C19.6986 18.2821 19.699 18.2818 19.6993 18.2817C19.6998 18.2815 19.7004 18.2812 19.7009 18.2809C19.7019 18.2804 19.7028 18.28 19.7035 18.2796C19.7051 18.2789 19.706 18.2784 19.7066 18.2781C19.7076 18.2777 19.7065 18.2782 19.7033 18.2797C19.697 18.2825 19.6822 18.2891 19.6584 18.2989C19.6109 18.3185 19.5275 18.3509 19.404 18.392C19.1572 18.4742 18.7505 18.5915 18.1516 18.7113C16.9532 18.951 14.9883 19.2001 12 19.2001V21.0001C15.0866 21.0001 17.1717 20.743 18.5046 20.4764C19.1714 20.343 19.6506 20.2072 19.9733 20.0996C20.1346 20.0458 20.2568 19.9991 20.3438 19.9633C20.3873 19.9454 20.4219 19.9303 20.4482 19.9183C20.4613 19.9124 20.4724 19.9071 20.4814 19.9028C20.4859 19.9007 20.4899 19.8988 20.4935 19.8971C20.4952 19.8962 20.4968 19.8953 20.4983 19.8946C20.499 19.8943 20.4998 19.8939 20.5005 19.8935C20.5008 19.8934 20.5013 19.8932 20.5015 19.8931C20.502 19.8928 20.5025 19.8926 20.1 19.0876ZM12 19.2001C9.01168 19.2001 7.04677 18.951 5.84839 18.7113C5.24947 18.5915 4.84278 18.4742 4.59594 18.392C4.47253 18.3509 4.3891 18.3185 4.34156 18.2989C4.31779 18.2891 4.30299 18.2825 4.29666 18.2797C4.29349 18.2782 4.29243 18.2777 4.29343 18.2781C4.29393 18.2784 4.29494 18.2789 4.29645 18.2796C4.29721 18.28 4.29809 18.2804 4.2991 18.2809C4.29961 18.2812 4.30014 18.2815 4.30071 18.2817C4.30099 18.2818 4.30144 18.2821 4.30158 18.2822C4.30204 18.2824 4.3025 18.2826 3.90001 19.0876C3.49752 19.8926 3.498 19.8928 3.49848 19.8931C3.49866 19.8932 3.49915 19.8934 3.4995 19.8935C3.50019 19.8939 3.50091 19.8943 3.50166 19.8946C3.50317 19.8953 3.5048 19.8962 3.50655 19.8971C3.51006 19.8988 3.51407 19.9007 3.51858 19.9028C3.52761 19.9071 3.53867 19.9124 3.55181 19.9183C3.5781 19.9303 3.61274 19.9454 3.65621 19.9633C3.74315 19.9991 3.86537 20.0458 4.02673 20.0996C4.34942 20.2072 4.82867 20.343 5.49537 20.4764C6.82823 20.743 8.91331 21.0001 12 21.0001V19.2001ZM4.5364 19.724L10.6114 13.649L9.3386 12.3762L3.26361 18.4512L4.5364 19.724ZM10.8288 12.728L9.81631 9.69049L8.10869 10.2597L9.12119 13.2972L10.8288 12.728ZM9.81631 10.2597L10.8288 7.2222L9.12119 6.65299L8.10869 9.69049L9.81631 10.2597ZM9.975 7.8376H14.025V6.0376H9.975V7.8376Z" fill="#40BFFF"/>
<path d="M13.0123 6.9375L12.1585 6.65289C12.067 6.92735 12.113 7.22905 12.2822 7.46374C12.4513 7.69843 12.723 7.8375 13.0123 7.8375V6.9375ZM16.0498 6.9375V7.8375C16.4372 7.8375 16.7811 7.58961 16.9036 7.22211L16.0498 6.9375ZM17.0623 3.9L17.9161 4.18461C18.0076 3.91015 17.9616 3.60845 17.7924 3.37376C17.6233 3.13907 17.3516 3 17.0623 3V3.9ZM14.0248 3.9V3C13.6374 3 13.2935 3.24789 13.171 3.61539L14.0248 3.9ZM13.0123 7.8375H16.0498V6.0375H13.0123V7.8375ZM16.9036 7.22211L17.9161 4.18461L16.2085 3.61539L15.196 6.65289L16.9036 7.22211ZM17.0623 3H14.0248V4.8H17.0623V3ZM13.171 3.61539L12.1585 6.65289L13.8661 7.22211L14.8786 4.18461L13.171 3.61539Z" fill="#40BFFF"/>
<path d="M6.93711 3.9V3C6.64781 3 6.37615 3.13907 6.207 3.37376C6.03784 3.60845 5.99182 3.91015 6.0833 4.18461L6.93711 3.9ZM9.97461 3.9L10.8284 3.61539C10.7059 3.24789 10.362 3 9.97461 3V3.9ZM10.9871 6.9375V7.8375C11.2764 7.8375 11.5481 7.69843 11.7172 7.46374C11.8864 7.22905 11.9324 6.92735 11.8409 6.65289L10.9871 6.9375ZM7.94961 6.9375L7.0958 7.22211C7.2183 7.58961 7.56222 7.8375 7.94961 7.8375V6.9375ZM6.93711 4.8H9.97461V3H6.93711V4.8ZM9.1208 4.18461L10.1333 7.22211L11.8409 6.65289L10.8284 3.61539L9.1208 4.18461ZM10.9871 6.0375H7.94961V7.8375H10.9871V6.0375ZM8.80342 6.65289L7.79093 3.61539L6.0833 4.18461L7.0958 7.22211L8.80342 6.65289Z" fill="#40BFFF"/>
<path d="M9.97519 12.1123C9.47814 12.1123 9.0752 12.5152 9.0752 13.0123C9.0752 13.5094 9.47814 13.9123 9.97519 13.9123V12.1123ZM14.0252 13.9123C14.5222 13.9123 14.9252 13.5094 14.9252 13.0123C14.9252 12.5152 14.5222 12.1123 14.0252 12.1123V13.9123ZM9.97519 13.9123H14.0252V12.1123H9.97519V13.9123Z" fill="#40BFFF"/>
</svg>
