<svg width="34" height="20" viewBox="0 0 34 20" fill="none" xmlns="http://www.w3.org/2000/svg">
<path d="M32.8356 0.47619H33.321V0H32.8356V0.47619ZM32.8356 19.5238V20H33.321V19.5238H32.8356ZM5.33974 0.952381H32.8356V0H5.33974V0.952381ZM32.3502 0.47619V19.5238H33.321V0.47619H32.3502ZM32.8356 19.0476H5.33974V20H32.8356V19.0476ZM0.970862 14.7619V5.2381H0V14.7619H0.970862ZM5.33974 19.0476C2.92688 19.0476 0.970862 17.1289 0.970862 14.7619H0C0 17.6549 2.39069 20 5.33974 20V19.0476ZM5.33974 0C2.39068 0 0 2.34517 0 5.2381H0.970862C0.970862 2.87116 2.92688 0.952381 5.33974 0.952381V0Z" fill="#EBF0FF"/>
<path d="M12.4284 9.52393C11.8922 9.52393 11.4575 9.95032 11.4575 10.4763C11.4575 11.0023 11.8922 11.4287 12.4284 11.4287V9.52393ZM21.8638 11.4287C22.4 11.4287 22.8348 11.0023 22.8348 10.4763C22.8348 9.95032 22.4 9.52393 21.8638 9.52393V11.4287ZM12.4284 11.4287H21.8638V9.52393H12.4284V11.4287Z" fill="#9098B1"/>
</svg>
