<svg width="24" height="24" viewBox="0 0 24 24" fill="none" xmlns="http://www.w3.org/2000/svg">
<path d="M19.1999 16.0432C19.1999 16.5402 19.6029 16.9432 20.0999 16.9432C20.597 16.9432 20.9999 16.5402 20.9999 16.0432H19.1999ZM20.0999 9.95762H20.9999C20.9999 9.46056 20.597 9.05762 20.0999 9.05762V9.95762ZM14.0711 9.05762C13.5741 9.05762 13.1711 9.46056 13.1711 9.95762C13.1711 10.4547 13.5741 10.8576 14.0711 10.8576V9.05762ZM20.9999 16.0432V9.95762H19.1999V16.0432H20.9999ZM20.0999 9.05762H14.0711V10.8576H20.0999V9.05762Z" fill="#40BFFF"/>
<path d="M20.7362 10.594C21.0876 10.2425 21.0876 9.67269 20.7362 9.32122C20.3847 8.96975 19.8148 8.96975 19.4634 9.32122L20.7362 10.594ZM9.32073 19.4638C8.96926 19.8153 8.96926 20.3852 9.32073 20.7366C9.6722 21.0881 10.2421 21.0881 10.5935 20.7366L9.32073 19.4638ZM19.4634 9.32122L9.32073 19.4638L10.5935 20.7366L20.7362 10.594L19.4634 9.32122Z" fill="#40BFFF"/>
<path d="M4.8 7.95713C4.8 7.46007 4.39706 7.05713 3.9 7.05713C3.40294 7.05713 3 7.46007 3 7.95713H4.8ZM3.9 14.0427H3C3 14.5398 3.40294 14.9427 3.9 14.9427V14.0427ZM9.92778 14.9427C10.4248 14.9427 10.8278 14.5398 10.8278 14.0427C10.8278 13.5456 10.4248 13.1427 9.92778 13.1427V14.9427ZM3 7.95713V14.0427H4.8V7.95713H3ZM3.9 14.9427H9.92778V13.1427H3.9V14.9427Z" fill="#40BFFF"/>
<path d="M3.2636 13.4062C2.91213 13.7577 2.91213 14.3276 3.2636 14.679C3.61507 15.0305 4.18492 15.0305 4.5364 14.679L3.2636 13.4062ZM14.679 4.53639C15.0305 4.18492 15.0305 3.61507 14.679 3.2636C14.3276 2.91213 13.7577 2.91213 13.4062 3.2636L14.679 4.53639ZM4.5364 14.679L14.679 4.53639L13.4062 3.2636L3.2636 13.4062L4.5364 14.679Z" fill="#40BFFF"/>
</svg>
