<svg width="24" height="24" viewBox="0 0 24 24" fill="none" xmlns="http://www.w3.org/2000/svg">
<path d="M3.36379 9.14796C2.96461 9.44381 2.8811 10.0069 3.17727 10.4056C3.47344 10.8044 4.03713 10.8878 4.43631 10.592L3.36379 9.14796ZM12 3.8668L12.5363 3.14479C12.2178 2.90877 11.7822 2.90877 11.4637 3.14479L12 3.8668ZM19.5637 10.592C19.9629 10.8878 20.5265 10.8044 20.8227 10.4056C21.1189 10.0069 21.0354 9.44381 20.6362 9.14796L19.5637 10.592ZM4.43631 10.592L12.5363 4.5888L11.4637 3.14479L3.36379 9.14796L4.43631 10.592ZM11.4637 4.5888L19.5637 10.592L20.6362 9.14796L12.5363 3.14479L11.4637 4.5888Z" fill="#40BFFF"/>
<path d="M20.9999 9.86973C20.9999 9.37321 20.5969 8.9707 20.0999 8.9707C19.6028 8.9707 19.1999 9.37321 19.1999 9.86973H20.9999ZM20.0999 19.875V20.774C20.5969 20.774 20.9999 20.3715 20.9999 19.875H20.0999ZM3.89999 19.875H3C3 20.3715 3.40294 20.774 3.89999 20.774V19.875ZM4.79999 9.86973C4.79999 9.37321 4.39705 8.9707 3.89999 8.9707C3.40294 8.9707 3 9.37321 3 9.86973H4.79999ZM19.1999 9.86973V19.875H20.9999V9.86973H19.1999ZM20.0999 18.976H3.89999V20.774H20.0999V18.976ZM4.79999 19.875V9.86973H3V19.875H4.79999Z" fill="#40BFFF"/>
<path d="M9.97494 13.8722V12.9731C9.47789 12.9731 9.07495 13.3757 9.07495 13.8722H9.97494ZM14.0249 13.8722H14.9249C14.9249 13.3757 14.522 12.9731 14.0249 12.9731V13.8722ZM14.0249 19.8753V20.7744C14.522 20.7744 14.9249 20.3719 14.9249 19.8753H14.0249ZM9.97494 19.8753H9.07495C9.07495 20.3719 9.47789 20.7744 9.97494 20.7744V19.8753ZM9.97494 14.7712H14.0249V12.9731H9.97494V14.7712ZM13.1249 13.8722V19.8753H14.9249V13.8722H13.1249ZM14.0249 18.9763H9.97494V20.7744H14.0249V18.9763ZM10.8749 19.8753V13.8722H9.07495V19.8753H10.8749Z" fill="#40BFFF"/>
</svg>
