<svg width="24" height="24" viewBox="0 0 24 24" fill="none" xmlns="http://www.w3.org/2000/svg">
<path d="M3.9 11.1001C3.40294 11.1001 3 11.503 3 12.0001C3 12.4972 3.40294 12.9001 3.9 12.9001V11.1001ZM8.9625 12.9001C9.45955 12.9001 9.8625 12.4972 9.8625 12.0001C9.8625 11.503 9.45955 11.1001 8.9625 11.1001V12.9001ZM3.9 12.9001H8.9625V11.1001H3.9V12.9001Z" fill="#9098B1"/>
<path d="M17.9626 3.9C17.9626 3.40294 17.5597 3 17.0626 3C16.5655 3 16.1626 3.40294 16.1626 3.9H17.9626ZM17.0626 20.1H16.1626C16.1626 20.464 16.3819 20.7921 16.7182 20.9315C17.0545 21.0708 17.4416 20.9937 17.699 20.7363L17.0626 20.1ZM20.7365 17.6989C21.088 17.3474 21.088 16.7775 20.7365 16.4261C20.385 16.0746 19.8152 16.0746 19.4637 16.4261L20.7365 17.6989ZM16.1626 3.9V20.1H17.9626V3.9H16.1626ZM17.699 20.7363L20.7365 17.6989L19.4637 16.4261L16.4262 19.4636L17.699 20.7363Z" fill="#9098B1"/>
<path d="M3.9 4.7998C3.40294 4.7998 3 5.20275 3 5.6998C3 6.19686 3.40294 6.5998 3.9 6.5998V4.7998ZM13.0125 6.5998C13.5096 6.5998 13.9125 6.19686 13.9125 5.6998C13.9125 5.20275 13.5096 4.7998 13.0125 4.7998V6.5998ZM3.9 6.5998H13.0125V4.7998H3.9V6.5998Z" fill="#9098B1"/>
<path d="M3.9 17.3999C3.40294 17.3999 3 17.8028 3 18.2999C3 18.797 3.40294 19.1999 3.9 19.1999V17.3999ZM6.9375 19.1999C7.43455 19.1999 7.8375 18.797 7.8375 18.2999C7.8375 17.8028 7.43455 17.3999 6.9375 17.3999V19.1999ZM3.9 19.1999H6.9375V17.3999H3.9V19.1999Z" fill="#9098B1"/>
<path d="M16.4261 20.7365C16.7776 21.088 17.3474 21.088 17.6989 20.7365C18.0504 20.385 18.0504 19.8152 17.6989 19.4637L16.4261 20.7365ZM14.6614 16.4262C14.3099 16.0747 13.7401 16.0747 13.3886 16.4262C13.0371 16.7777 13.0371 17.3475 13.3886 17.699L14.6614 16.4262ZM17.6989 19.4637L14.6614 16.4262L13.3886 17.699L16.4261 20.7365L17.6989 19.4637Z" fill="#9098B1"/>
</svg>
