<svg width="24" height="24" viewBox="0 0 24 24" fill="none" xmlns="http://www.w3.org/2000/svg">
<path d="M3.9 6.75937V5.85938C3.40294 5.85938 3 6.26232 3 6.75937H3.9ZM20.1 6.75937H21C21 6.26232 20.5971 5.85938 20.1 5.85938V6.75937ZM20.1 20.1001V21.0001C20.5971 21.0001 21 20.5971 21 20.1001H20.1ZM3.9 20.1001H3C3 20.5971 3.40294 21.0001 3.9 21.0001V20.1001ZM3.9 7.65937H20.1V5.85938H3.9V7.65937ZM19.2 6.75937V20.1001H21V6.75937H19.2ZM20.1 19.2001H3.9V21.0001H20.1V19.2001ZM4.8 20.1001V6.75937H3V20.1001H4.8Z" fill="#40BFFF"/>
<path d="M20.1 6.7593V7.6593C20.4319 7.6593 20.7368 7.47664 20.8934 7.18404C21.0501 6.89143 21.0329 6.53637 20.8489 6.2602L20.1 6.7593ZM3.9 6.7593L3.15108 6.2602C2.96702 6.53637 2.9499 6.89143 3.10653 7.18404C3.26316 7.47664 3.56811 7.6593 3.9 7.6593V6.7593ZM5.80553 3.9V3C5.50456 3 5.22351 3.15044 5.0566 3.40089L5.80553 3.9ZM18.1944 3.9L18.9434 3.40089C18.7765 3.15044 18.4955 3 18.1944 3V3.9ZM20.1 5.8593H3.9V7.6593H20.1V5.8593ZM4.64893 7.2584L6.55445 4.39911L5.0566 3.40089L3.15108 6.2602L4.64893 7.2584ZM5.80553 4.8H18.1944V3H5.80553V4.8ZM17.4455 4.39911L19.3511 7.2584L20.8489 6.2602L18.9434 3.40089L17.4455 4.39911Z" fill="#40BFFF"/>
<path d="M15.0444 10.8092C15.0444 10.3121 14.6415 9.90918 14.1444 9.90918C13.6474 9.90918 13.2444 10.3121 13.2444 10.8092H15.0444ZM10.7575 10.8092C10.7575 10.3121 10.3546 9.90918 9.85752 9.90918C9.36046 9.90918 8.95752 10.3121 8.95752 10.8092H10.7575ZM13.2444 10.8092C13.2444 11.4957 12.6875 12.0526 12.001 12.0526V13.8526C13.6817 13.8526 15.0444 12.4898 15.0444 10.8092H13.2444ZM12.001 12.0526C11.3144 12.0526 10.7575 11.4957 10.7575 10.8092H8.95752C8.95752 12.4898 10.3203 13.8526 12.001 13.8526V12.0526Z" fill="#40BFFF"/>
</svg>
