<svg width="24" height="24" viewBox="0 0 24 24" fill="none" xmlns="http://www.w3.org/2000/svg">
<path d="M20.1 20.0998V20.9998C20.3646 20.9998 20.6157 20.8834 20.7867 20.6816C20.9577 20.4797 21.0312 20.2128 20.9878 19.9518L20.1 20.0998ZM3.90001 20.0998L3.01225 19.9518C2.96876 20.2128 3.04229 20.4797 3.21329 20.6816C3.38429 20.8834 3.63545 20.9998 3.90001 20.9998V20.0998ZM20.1 19.1998H3.90001V20.9998H20.1V19.1998ZM4.78776 20.2478L6.43674 10.3539L4.66123 10.058L3.01225 19.9518L4.78776 20.2478ZM8.21225 8.8498H15.7877V7.0498H8.21225V8.8498ZM17.5633 10.3539L19.2122 20.2478L20.9878 19.9518L19.3388 10.058L17.5633 10.3539ZM15.7877 8.8498C16.6677 8.8498 17.4186 9.48595 17.5633 10.3539L19.3388 10.058C19.0494 8.32209 17.5476 7.0498 15.7877 7.0498V8.8498ZM6.43674 10.3539C6.58139 9.48595 7.33233 8.8498 8.21225 8.8498V7.0498C6.45243 7.0498 4.95054 8.32209 4.66123 10.058L6.43674 10.3539Z" fill="#40BFFF"/>
<path d="M5.93477 10.9737C5.43774 10.9685 5.03062 11.3672 5.02544 11.8643C5.02026 12.3613 5.41899 12.7684 5.91602 12.7736L5.93477 10.9737ZM18.066 12.9001C18.563 12.9053 18.9702 12.5066 18.9753 12.0096C18.9805 11.5125 18.5818 11.1054 18.0847 11.1002L18.066 12.9001ZM5.91602 12.7736L18.066 12.9001L18.0847 11.1002L5.93477 10.9737L5.91602 12.7736Z" fill="#40BFFF"/>
<path d="M7.5 7.02154C7.5 7.51859 7.90294 7.92154 8.4 7.92154C8.89706 7.92154 9.3 7.51859 9.3 7.02154H7.5ZM14.7 7.05C14.7 7.54705 15.1029 7.95 15.6 7.95C16.0971 7.95 16.5 7.54705 16.5 7.05H14.7ZM9.3 7.02154V6.9375H7.5V7.02154H9.3ZM9.3 6.9375C9.3 5.75684 10.2568 4.8 11.4375 4.8V3C9.26273 3 7.5 4.76273 7.5 6.9375H9.3ZM11.4375 4.8H12.7456V3H11.4375V4.8ZM12.7456 4.8C13.6746 4.8 14.7 5.78718 14.7 7.05H16.5C16.5 4.95739 14.8254 3 12.7456 3V4.8Z" fill="#40BFFF"/>
</svg>
