<svg width="24" height="24" viewBox="0 0 24 24" fill="none" xmlns="http://www.w3.org/2000/svg">
<path d="M7.55625 7.97025C7.83585 7.97025 8.0625 7.74627 8.0625 7.46999C8.0625 7.1937 7.83585 6.96973 7.55625 6.96973C7.27666 6.96973 7.05 7.1937 7.05 7.46999C7.05 7.74627 7.27666 7.97025 7.55625 7.97025Z" fill="#9098B1" stroke="#9098B1" stroke-width="2" stroke-linecap="round" stroke-linejoin="round"/>
<path d="M20.1 12.7604L20.733 13.3996C20.9039 13.2307 21 13.0006 21 12.7604C21 12.5203 20.9039 12.2902 20.733 12.1213L20.1 12.7604ZM12.9001 19.8751L12.2672 20.5143C12.6178 20.8608 13.1824 20.8608 13.5331 20.5143L12.9001 19.8751ZM3.9 10.9815H3C3 11.2216 3.09616 11.4518 3.26705 11.6206L3.9 10.9815ZM3.9 3.86679V2.96777C3.40294 2.96777 3 3.37028 3 3.86679H3.9ZM11.0999 3.86679L11.7328 3.22766C11.5643 3.06116 11.3369 2.96777 11.0999 2.96777V3.86679ZM19.467 12.1213L12.2672 19.236L13.5331 20.5143L20.733 13.3996L19.467 12.1213ZM13.5331 19.236L4.53295 10.3424L3.26705 11.6206L12.2672 20.5143L13.5331 19.236ZM4.8 10.9815V3.86679H3V10.9815H4.8ZM3.9 4.76581H11.0999V2.96777H3.9V4.76581ZM10.4669 4.50592L19.467 13.3996L20.733 12.1213L11.7328 3.22766L10.4669 4.50592Z" fill="#9098B1"/>
</svg>
