<svg width="24" height="24" viewBox="0 0 24 24" fill="none" xmlns="http://www.w3.org/2000/svg">
<path d="M19.0705 4.8884H19.9796C19.9796 4.39748 19.5726 3.99951 19.0705 3.99951V4.8884ZM4.92957 4.8884V3.99951C4.42749 3.99951 4.02048 4.39748 4.02048 4.8884H4.92957ZM4.92957 7.79765L5.81918 7.98064C5.83213 7.92046 5.83866 7.85914 5.83866 7.79765H4.92957ZM2.90911 17.1884L2.0195 17.0055C1.95144 17.3217 2.06436 17.6492 2.31438 17.8607L2.90911 17.1884ZM21.0909 17.1884L21.6856 17.8607C21.9366 17.6485 22.0493 17.3195 21.9798 17.0023L21.0909 17.1884ZM19.0705 7.9637H18.1614C18.1614 8.02626 18.1681 8.08866 18.1816 8.14984L19.0705 7.9637ZM19.0705 3.99951H4.92957V5.77729H19.0705V3.99951ZM4.02048 4.8884V7.79765H5.83866V4.8884H4.02048ZM4.03995 7.61466L2.0195 17.0055L3.79873 17.3714L5.81918 7.98064L4.03995 7.61466ZM2.90911 17.1884C2.31438 17.8607 2.31489 17.8611 2.3154 17.8616C2.31559 17.8617 2.31611 17.8622 2.31648 17.8624C2.31722 17.8631 2.31799 17.8638 2.3188 17.8644C2.32042 17.8657 2.32218 17.8672 2.32408 17.8688C2.3279 17.872 2.3323 17.8755 2.33728 17.8796C2.34726 17.8876 2.3596 17.8974 2.37436 17.9088C2.4039 17.9314 2.44314 17.9605 2.49264 17.995C2.59166 18.064 2.73153 18.1544 2.91662 18.2588C3.28705 18.4677 3.83683 18.7312 4.60049 18.9896C6.12844 19.5064 8.50314 19.9995 12 19.9995V18.2217C8.67872 18.2217 6.50797 17.7536 5.195 17.3095C4.53821 17.0873 4.09368 16.8703 3.82489 16.7187C3.69039 16.6429 3.59943 16.5832 3.54753 16.5471C3.52157 16.5289 3.50532 16.5168 3.49824 16.5112C3.4947 16.5086 3.49344 16.5075 3.4944 16.5083C3.49488 16.5087 3.49591 16.5096 3.49749 16.5108C3.49828 16.5115 3.4992 16.5122 3.50026 16.5131C3.50079 16.5136 3.50136 16.514 3.50195 16.5145C3.50225 16.5148 3.50273 16.5152 3.50287 16.5153C3.50336 16.5157 3.50385 16.5161 2.90911 17.1884ZM12 19.9995C15.4969 19.9995 17.8716 19.5064 19.3996 18.9896C20.1632 18.7312 20.713 18.4677 21.0834 18.2588C21.2685 18.1544 21.4084 18.064 21.5074 17.995C21.5569 17.9605 21.5961 17.9314 21.6256 17.9088C21.6405 17.8974 21.6527 17.8876 21.6627 17.8796C21.6677 17.8755 21.6721 17.872 21.6759 17.8688C21.6778 17.8672 21.6796 17.8657 21.6812 17.8644C21.682 17.8638 21.6828 17.8631 21.6836 17.8624C21.6839 17.8622 21.6845 17.8617 21.6846 17.8616C21.6851 17.8611 21.6856 17.8607 21.0909 17.1884C20.4962 16.5161 20.4966 16.5157 20.4972 16.5153C20.4973 16.5152 20.4977 16.5148 20.4981 16.5145C20.4986 16.514 20.4993 16.5136 20.4997 16.5131C20.5008 16.5122 20.5017 16.5115 20.5026 16.5108C20.5041 16.5096 20.5052 16.5087 20.5056 16.5083C20.5066 16.5075 20.5054 16.5086 20.5018 16.5112C20.4947 16.5168 20.4785 16.5289 20.4525 16.5471C20.4006 16.5832 20.3096 16.6429 20.1751 16.7187C19.9064 16.8703 19.4618 17.0873 18.805 17.3095C17.4921 17.7536 15.3213 18.2217 12 18.2217V19.9995ZM21.9798 17.0023L19.9594 7.77755L18.1816 8.14984L20.202 17.3745L21.9798 17.0023ZM19.9796 7.9637V4.8884H18.1614V7.9637H19.9796Z" fill="#40BFFF"/>
<path d="M4.72745 6.66602C4.22537 6.66602 3.81836 7.06398 3.81836 7.5549C3.81836 8.04582 4.22537 8.44379 4.72745 8.44379V6.66602ZM19.2729 8.44379C19.775 8.44379 20.182 8.04582 20.182 7.5549C20.182 7.06398 19.775 6.66602 19.2729 6.66602V8.44379ZM4.72745 8.44379H19.2729V6.66602H4.72745V8.44379Z" fill="#40BFFF"/>
<path d="M14.74 13.9237C14.8225 14.4079 15.2909 14.735 15.7861 14.6543C16.2814 14.5736 16.6159 14.1156 16.5334 13.6314L14.74 13.9237ZM15.6243 8.29807C15.5418 7.81383 15.0734 7.4867 14.5781 7.56741C14.0829 7.64812 13.7483 8.1061 13.8309 8.59034L15.6243 8.29807ZM16.5334 13.6314L15.6243 8.29807L13.8309 8.59034L14.74 13.9237L16.5334 13.6314Z" fill="#40BFFF"/>
<path d="M7.46661 13.6314C7.38407 14.1156 7.71864 14.5736 8.21388 14.6543C8.70913 14.735 9.17751 14.4079 9.26006 13.9237L7.46661 13.6314ZM10.1691 8.59034C10.2517 8.1061 9.91712 7.64812 9.42188 7.56741C8.92663 7.4867 8.45824 7.81383 8.3757 8.29807L10.1691 8.59034ZM9.26006 13.9237L10.1691 8.59034L8.3757 8.29807L7.46661 13.6314L9.26006 13.9237Z" fill="#40BFFF"/>
</svg>
