<svg width="24" height="24" viewBox="0 0 24 24" fill="none" xmlns="http://www.w3.org/2000/svg">
<path fill-rule="evenodd" clip-rule="evenodd" d="M12 4.00049C10.3971 4.00049 9.09766 5.29993 9.09766 6.90287C9.09766 8.50581 10.3971 9.80525 12 9.80525C13.603 9.80525 14.9024 8.50581 14.9024 6.90287C14.9024 5.29993 13.603 4.00049 12 4.00049ZM7.09766 6.90287C7.09766 4.19536 9.29253 2.00049 12 2.00049C14.7075 2.00049 16.9024 4.19536 16.9024 6.90287C16.9024 9.61038 14.7075 11.8052 12 11.8052C9.29253 11.8052 7.09766 9.61038 7.09766 6.90287Z" fill="#40BFFF"/>
<path fill-rule="evenodd" clip-rule="evenodd" d="M9.51784 15.3906C6.47035 15.3906 4 17.861 4 20.9085V20.9996C4 21.5519 3.55228 21.9996 3 21.9996C2.44771 21.9996 2 21.5519 2 20.9996V20.9085C2 16.7564 5.36578 13.3906 9.51784 13.3906H14.4822C18.6342 13.3906 22 16.7564 22 20.9085V20.9996C22 21.5519 21.5523 21.9996 21 21.9996C20.4477 21.9996 20 21.5519 20 20.9996V20.9085C20 17.861 17.5296 15.3906 14.4822 15.3906H9.51784Z" fill="#40BFFF"/>
</svg>
